<svg width="34" height="34" viewBox="0 0 34 34" fill="none" xmlns="http://www.w3.org/2000/svg">
<path d="M26.9167 12.75V8.5C26.9167 7.74855 26.6182 7.02788 26.0868 6.49653C25.5554 5.96518 24.8348 5.66666 24.0833 5.66666H9.91667C9.16522 5.66666 8.44455 5.96518 7.9132 6.49653C7.38184 7.02788 7.08333 7.74855 7.08333 8.5V12.75M26.9167 12.75C27.6681 12.75 28.3888 13.0485 28.9201 13.5799C29.4515 14.1112 29.75 14.8319 29.75 15.5833V22.6667C29.75 23.4181 29.4515 24.1388 28.9201 24.6701C28.3888 25.2015 27.6681 25.5 26.9167 25.5M26.9167 12.75C26.1652 12.75 25.4446 13.0485 24.9132 13.5799C24.3818 14.1112 24.0833 14.8319 24.0833 15.5833V18.4167H9.91667V15.5833C9.91667 14.8319 9.61816 14.1112 9.0868 13.5799C8.55545 13.0485 7.83478 12.75 7.08333 12.75M7.08333 12.75C6.33189 12.75 5.61122 13.0485 5.07986 13.5799C4.54851 14.1112 4.25 14.8319 4.25 15.5833V22.6667C4.25 23.4181 4.54851 24.1388 5.07986 24.6701C5.61122 25.2015 6.33189 25.5 7.08333 25.5M7.08333 25.5H26.9167M7.08333 25.5V28.3333M26.9167 25.5V28.3333" stroke="#0F1319" stroke-width="2" stroke-linecap="round" stroke-linejoin="round"/>
</svg>
