<svg width="514" height="141" viewBox="0 0 514 141" fill="none" xmlns="http://www.w3.org/2000/svg">
<path d="M54.6719 3.13672C65.349 3.13672 74.8542 5.67578 83.1875 10.7539C91.5208 15.832 97.5755 22.5378 101.352 30.8711C101.807 31.7826 102.035 32.7591 102.035 33.8008C102.035 35.6888 101.352 37.3164 99.9844 38.6836C98.6172 40.0508 96.9896 40.7344 95.1016 40.7344C93.8646 40.7344 92.5951 40.3438 91.293 39.5625C90.056 38.7161 89.1771 37.707 88.6562 36.5352C85.987 30.5456 81.5924 25.8255 75.4727 22.375C69.418 18.8594 62.4844 17.1016 54.6719 17.1016C50.5052 17.1016 46.1758 17.6224 41.6836 18.6641C37.2565 19.6406 33.1224 21.138 29.2812 23.1562C25.5052 25.1745 22.4453 27.7461 20.1016 30.8711C17.7578 33.931 16.5859 37.5117 16.5859 41.6133C16.5859 46.3659 18.1484 50.2396 21.2734 53.2344C24.3984 56.1641 28.3698 58.4753 33.1875 60.168C38.0703 61.7956 43.1484 63.0651 48.4219 63.9766C53.7604 64.8229 58.6107 65.5391 62.9727 66.125C68.181 66.8411 73.3568 67.9479 78.5 69.4453C83.7083 70.8776 88.4284 72.9284 92.6602 75.5977C96.8919 78.2018 100.277 81.5872 102.816 85.7539C105.421 89.9206 106.723 95.0312 106.723 101.086C106.723 107.727 105.128 113.521 101.938 118.469C98.7474 123.352 94.5482 127.421 89.3398 130.676C84.1966 133.866 78.5651 136.275 72.4453 137.902C66.3906 139.465 60.4661 140.246 54.6719 140.246C42.6276 140.246 31.7878 137.512 22.1523 132.043C12.5169 126.574 5.64844 119.12 1.54688 109.68C1.15625 108.638 0.960938 107.694 0.960938 106.848C0.960938 104.96 1.64453 103.332 3.01172 101.965C4.37891 100.598 6.00651 99.9141 7.89453 99.9141C9.19661 99.9141 10.4661 100.337 11.7031 101.184C13.0052 102.03 13.8841 103.039 14.3398 104.211C17.3997 111.177 22.5104 116.646 29.6719 120.617C36.8984 124.589 45.2318 126.574 54.6719 126.574C58.8385 126.574 63.1354 126.086 67.5625 125.109C72.0547 124.068 76.2214 122.538 80.0625 120.52C83.9036 118.436 86.9961 115.799 89.3398 112.609C91.7487 109.354 92.9531 105.513 92.9531 101.086C92.9531 95.8776 91.2604 91.8737 87.875 89.0742C84.5547 86.2096 80.4531 84.1263 75.5703 82.8242C70.6875 81.457 65.8698 80.4805 61.1172 79.8945C54.737 78.9831 48.1289 77.8438 41.293 76.4766C34.5221 75.1094 28.207 73.1237 22.3477 70.5195C16.4883 67.9154 11.7357 64.3021 8.08984 59.6797C4.44401 54.9922 2.62109 48.9375 2.62109 41.5156C2.62109 35.2656 4.18359 29.7643 7.30859 25.0117C10.4336 20.194 14.5352 16.1901 19.6133 13C24.7565 9.74479 30.388 7.30339 36.5078 5.67578C42.6276 3.98307 48.6823 3.13672 54.6719 3.13672Z" fill="#0F1319"/>
<path d="M191.648 140.539C189.63 140.539 187.97 139.823 186.668 138.391C185.431 136.958 184.812 135.233 184.812 133.215L184.324 121.594C182.046 124.393 179.344 127.258 176.219 130.188C173.094 133.052 169.546 135.461 165.574 137.414C161.603 139.302 157.111 140.246 152.098 140.246C143.504 140.246 136.57 138.033 131.297 133.605C126.023 129.178 122.182 123.352 119.773 116.125C117.43 108.898 116.258 101.151 116.258 92.8828L116.355 45.5195C116.355 43.5013 117.072 41.776 118.504 40.3438C119.936 38.9115 121.661 38.1953 123.68 38.1953C125.763 38.1953 127.488 38.9115 128.855 40.3438C130.288 41.776 131.004 43.5339 131.004 45.6172L130.906 92.8828C130.906 98.612 131.492 103.983 132.664 108.996C133.836 113.944 135.952 117.948 139.012 121.008C142.137 124.068 146.499 125.598 152.098 125.598C162.71 125.598 170.717 122.766 176.121 117.102C181.525 111.438 184.227 103.462 184.227 93.1758V45.3242C184.227 43.306 184.943 41.5807 186.375 40.1484C187.807 38.7161 189.533 38 191.551 38C193.634 38 195.359 38.7161 196.727 40.1484C198.159 41.5807 198.875 43.3385 198.875 45.4219L198.973 133.117C198.973 135.135 198.257 136.861 196.824 138.293C195.457 139.79 193.732 140.539 191.648 140.539Z" fill="#0F1319"/>
<path d="M266.027 47.2773C266.027 49.0352 265.441 50.6628 264.27 52.1602C263.098 53.6576 261.828 54.4062 260.461 54.4062C258.443 54.4062 256.522 53.9505 254.699 53.0391C252.941 52.0625 250.793 51.5742 248.254 51.5742C241.874 51.5742 236.861 52.9414 233.215 55.6758C229.569 58.4102 226.965 61.9258 225.402 66.2227C223.905 70.4544 223.156 74.9466 223.156 79.6992V132.922C223.156 134.94 222.538 136.665 221.301 138.098C220.129 139.595 218.306 140.344 215.832 140.344C213.423 140.344 211.6 139.595 210.363 138.098C209.126 136.665 208.508 134.94 208.508 132.922V46.3008C208.508 43.8919 209.289 41.9388 210.852 40.4414C212.479 38.944 214.204 38.1953 216.027 38.1953C217.915 38.1953 219.445 38.944 220.617 40.4414C221.854 41.8737 222.473 43.8268 222.473 46.3008L223.352 57.043C224.263 54.0482 225.956 51.0859 228.43 48.1562C230.969 45.2266 233.931 42.7852 237.316 40.832C240.767 38.8138 244.25 37.8047 247.766 37.8047C252.779 37.8047 257.076 38.4883 260.656 39.8555C264.237 41.1576 266.027 43.6315 266.027 47.2773Z" fill="#0F1319"/>
<path d="M328.039 19.1523C326.086 19.1523 324.328 18.7292 322.766 17.8828C321.203 16.9714 318.99 16.5482 316.125 16.6133C308.117 16.6784 304.146 22.4076 304.211 33.8008L304.309 40.5391H324.523C326.411 40.5391 328.007 41.2878 329.309 42.7852C330.676 44.2174 331.359 45.8776 331.359 47.7656C331.359 49.1979 330.708 50.6302 329.406 52.0625C328.104 53.4948 326.802 54.2109 325.5 54.2109H304.309L304.504 132.922C304.504 134.94 303.788 136.665 302.355 138.098C300.923 139.53 299.198 140.246 297.18 140.246C295.161 140.246 293.436 139.497 292.004 138C290.572 136.568 289.855 134.842 289.855 132.824L289.66 54.2109H276.086C274.068 54.2109 272.408 53.5599 271.105 52.2578C269.868 50.8906 269.25 49.0677 269.25 46.7891C269.25 45.487 269.836 44.1849 271.008 42.8828C272.245 41.5156 273.482 40.832 274.719 40.832L289.66 40.5391V34.4844C289.66 24.1979 291.711 16.2878 295.812 10.7539C299.979 5.22005 306.978 2.45312 316.809 2.45312C318.501 2.45312 320.845 2.71354 323.84 3.23438C326.835 3.75521 329.569 4.66667 332.043 5.96875C334.517 7.20573 335.754 8.96354 335.754 11.2422C335.754 13.4557 335.07 15.3438 333.703 16.9062C332.401 18.4036 330.513 19.1523 328.039 19.1523Z" fill="#0F1319"/>
<path d="M377.32 139.953C367.88 139.953 359.319 137.609 351.637 132.922C344.02 128.234 337.965 121.984 333.473 114.172C328.98 106.294 326.734 97.668 326.734 88.293C326.734 79.3737 328.85 71.138 333.082 63.5859C337.379 55.9688 343.173 49.849 350.465 45.2266C357.757 40.6042 365.895 38.293 374.879 38.293C383.147 38.293 390.732 40.3438 397.633 44.4453C404.599 48.5469 410.165 54.0807 414.332 61.0469C418.564 67.9479 420.68 75.6302 420.68 84.0938C420.68 87.0885 420.126 89.6602 419.02 91.8086C417.978 93.957 416.025 95.0312 413.16 95.0312H342.066C343.108 100.435 345.224 105.448 348.414 110.07C351.669 114.628 355.738 118.306 360.621 121.105C365.569 123.905 371.07 125.305 377.125 125.305C382.268 125.305 387.314 124.165 392.262 121.887C397.21 119.608 401.279 116.483 404.469 112.512C405.901 110.624 407.822 109.68 410.23 109.68C412.249 109.68 413.974 110.396 415.406 111.828C416.839 113.26 417.555 114.986 417.555 117.004C417.555 118.762 416.969 120.357 415.797 121.789C411.109 127.518 405.348 131.978 398.512 135.168C391.741 138.358 384.677 139.953 377.32 139.953ZM405.738 80.5781C405.152 75.5 403.427 70.8776 400.562 66.7109C397.698 62.4792 394.052 59.1263 389.625 56.6523C385.198 54.1784 380.315 52.9414 374.977 52.9414C369.443 52.9414 364.397 54.2109 359.84 56.75C355.283 59.2891 351.474 62.6419 348.414 66.8086C345.419 70.9753 343.368 75.5651 342.262 80.5781H405.738Z" fill="#0F1319"/>
<path d="M485.684 47.2773C485.684 49.0352 485.098 50.6628 483.926 52.1602C482.754 53.6576 481.484 54.4062 480.117 54.4062C478.099 54.4062 476.178 53.9505 474.355 53.0391C472.598 52.0625 470.449 51.5742 467.91 51.5742C461.53 51.5742 456.517 52.9414 452.871 55.6758C449.225 58.4102 446.621 61.9258 445.059 66.2227C443.561 70.4544 442.812 74.9466 442.812 79.6992V132.922C442.812 134.94 442.194 136.665 440.957 138.098C439.785 139.595 437.962 140.344 435.488 140.344C433.079 140.344 431.257 139.595 430.02 138.098C428.783 136.665 428.164 134.94 428.164 132.922V46.3008C428.164 43.8919 428.945 41.9388 430.508 40.4414C432.135 38.944 433.861 38.1953 435.684 38.1953C437.572 38.1953 439.102 38.944 440.273 40.4414C441.51 41.8737 442.129 43.8268 442.129 46.3008L443.008 57.043C443.919 54.0482 445.612 51.0859 448.086 48.1562C450.625 45.2266 453.587 42.7852 456.973 40.832C460.423 38.8138 463.906 37.8047 467.422 37.8047C472.435 37.8047 476.732 38.4883 480.312 39.8555C483.893 41.1576 485.684 43.6315 485.684 47.2773Z" fill="#0F1319"/>
<path d="M502.734 0.195312C504.323 0.195312 505.781 0.46224 507.109 0.996094C508.438 1.51693 509.583 2.24609 510.547 3.18359C511.51 4.12109 512.253 5.21484 512.773 6.46484C513.307 7.70182 513.574 9.04297 513.574 10.4883C513.574 12.4154 513.118 14.1471 512.207 15.6836C511.296 17.2201 510.026 18.4375 508.398 19.3359C506.771 20.2214 504.883 20.6641 502.734 20.6641C500.547 20.6641 498.639 20.2214 497.012 19.3359C495.397 18.4505 494.141 17.2461 493.242 15.7227C492.357 14.1862 491.914 12.4414 491.914 10.4883C491.914 9.08203 492.181 7.75391 492.715 6.50391C493.249 5.25391 493.997 4.16016 494.961 3.22266C495.924 2.27214 497.064 1.52995 498.379 0.996094C499.707 0.46224 501.159 0.195312 502.734 0.195312ZM502.734 2.42188C501.042 2.42188 499.564 2.77344 498.301 3.47656C497.051 4.17969 496.081 5.14323 495.391 6.36719C494.701 7.57812 494.355 8.95182 494.355 10.4883C494.355 11.556 494.57 12.5716 495 13.5352C495.43 14.4857 496.022 15.332 496.777 16.0742C497.546 16.8164 498.431 17.4023 499.434 17.832C500.449 18.2487 501.549 18.457 502.734 18.457C503.906 18.457 505 18.2357 506.016 17.793C507.044 17.3503 507.943 16.7513 508.711 15.9961C509.492 15.2409 510.098 14.388 510.527 13.4375C510.957 12.487 511.172 11.5039 511.172 10.4883C511.172 8.89974 510.801 7.5 510.059 6.28906C509.316 5.07812 508.307 4.13411 507.031 3.45703C505.768 2.76693 504.336 2.42188 502.734 2.42188ZM496.348 10.3125C496.348 9.15365 496.641 8.09245 497.227 7.12891C497.826 6.15234 498.626 5.37109 499.629 4.78516C500.645 4.1862 501.771 3.88672 503.008 3.88672C503.932 3.88672 504.772 4.04297 505.527 4.35547C506.283 4.66797 506.934 5.08464 507.48 5.60547C508.027 6.11328 508.451 6.67318 508.75 7.28516C508.815 7.41536 508.848 7.54557 508.848 7.67578C508.848 7.9362 508.75 8.15755 508.555 8.33984C508.359 8.50911 508.125 8.59375 507.852 8.59375C507.669 8.59375 507.487 8.54167 507.305 8.4375C507.122 8.33333 506.999 8.20312 506.934 8.04688C506.621 7.42188 506.12 6.88151 505.43 6.42578C504.753 5.95703 503.945 5.72266 503.008 5.72266C502.135 5.72266 501.348 5.9375 500.645 6.36719C499.954 6.79688 499.401 7.36328 498.984 8.06641C498.568 8.75651 498.359 9.50521 498.359 10.3125C498.359 11.1328 498.561 11.8945 498.965 12.5977C499.382 13.2878 499.941 13.8477 500.645 14.2773C501.348 14.694 502.135 14.9023 503.008 14.9023C503.945 14.9023 504.759 14.6745 505.449 14.2188C506.139 13.763 506.634 13.2227 506.934 12.5977C507.012 12.4414 507.135 12.3112 507.305 12.207C507.487 12.1029 507.669 12.0508 507.852 12.0508C508.138 12.0508 508.379 12.1419 508.574 12.3242C508.77 12.4935 508.867 12.7083 508.867 12.9688C508.867 13.112 508.835 13.2422 508.77 13.3594C508.47 13.9583 508.04 14.5182 507.48 15.0391C506.934 15.5599 506.283 15.9766 505.527 16.2891C504.772 16.6016 503.932 16.7578 503.008 16.7578C501.758 16.7578 500.632 16.4583 499.629 15.8594C498.626 15.2604 497.826 14.4727 497.227 13.4961C496.641 12.5195 496.348 11.4583 496.348 10.3125Z" fill="#0F1319"/>
</svg>
